<svg xmlns="http://www.w3.org/2000/svg" viewBox="0 0 512 512" fill="#B8985A">
  <path d="M128 148c0-30.9 25.1-56 56-56s56 25.1 56 56-25.1 56-56 56-56-25.1-56-56zm200-56c-30.9 0-56 25.1-56 56s25.1 56 56 56 56-25.1 56-56-25.1-56-56-56zM96 256c-35.3 0-64 28.7-64 64v32c0 17.7 14.3 32 32 32h96v-96c0-17.7-14.3-32-32-32h-32zm320 0h-32c-17.7 0-32 14.3-32 32v96h96c17.7 0 32-14.3 32-32v-32c0-35.3-28.7-64-64-64zM256 256c-44.2 0-80 35.8-80 80v80c0 17.7 14.3 32 32 32h96c17.7 0 32-14.3 32-32v-80c0-44.2-35.8-80-80-80z"/>
</svg>