<svg xmlns="http://www.w3.org/2000/svg" viewBox="0 0 512 512" fill="#3A3028">
  <path d="M288 64v48h48L224 224V160h48V64h-48c-26.51 0-48 21.49-48 48v112L64 336v48h48l112-112h112c26.51 0 48-21.49 48-48v-48h-48v48h-48l112-112v-48h-48c-26.51 0-48 21.49-48 48v48L224 240v-48l112-112V64h-48zm80 256c-8.837 0-16 7.163-16 16s7.163 16 16 16 16-7.163 16-16-7.163-16-16-16zm-224 0c-8.837 0-16 7.163-16 16s7.163 16 16 16 16-7.163 16-16-7.163-16-16-16zm112 64c-8.837 0-16 7.163-16 16s7.163 16 16 16 16-7.163 16-16-7.163-16-16-16z"/>
</svg>