<svg xmlns="http://www.w3.org/2000/svg" viewBox="0 0 512 512" fill="#8B2635">
  <path d="M208 64c0-8.8-7.2-16-16-16s-16 7.2-16 16v64h32V64zm-64 0c0-8.8-7.2-16-16-16s-16 7.2-16 16v64h32V64zm128 0c0-8.8-7.2-16-16-16s-16 7.2-16 16v64h32V64zm64 0c0-8.8-7.2-16-16-16s-16 7.2-16 16v64h32V64zM96 160v128c0 17.67 14.33 32 32 32h64v128c0 17.67 14.33 32 32 32h64c17.67 0 32-14.33 32-32V320h64c17.67 0 32-14.33 32-32V160c0-17.67-14.33-32-32-32H128c-17.67 0-32 14.33-32 32zm288 96h-48v-64h48v64zm-256-64h48v64h-48v-64zm96 0h64v64h-64v-64z"/>
</svg>