<svg xmlns="http://www.w3.org/2000/svg" viewBox="0 0 512 512" fill="#C9A961">
  <path d="M256 32c-17.67 0-32 14.33-32 32v64c0 17.67 14.33 32 32 32s32-14.33 32-32V64c0-17.67-14.33-32-32-32zm-96 96c0 17.67-14.33 32-32 32H64c-17.67 0-32 14.33-32 32v64c0 17.67 14.33 32 32 32h64c17.67 0 32-14.33 32-32s-14.33-32-32-32H96v-32h32c35.35 0 64-28.65 64-64s-28.65-64-64-64H64c-17.67 0-32 14.33-32 32s14.33 32 32 32h64c0 17.67-14.33 32-32 32zm288 32h-64c-17.67 0-32 14.33-32 32s14.33 32 32 32h32v32h-32c-17.67 0-32 14.33-32 32s14.33 32 32 32h64c17.67 0 32-14.33 32-32v-64c0-17.67-14.33-32-32-32h32c17.67 0 32-14.33 32-32s-14.33-32-32-32h-64c-35.35 0-64 28.65-64 64s28.65 64 64 64zm-192 192c-17.67 0-32 14.33-32 32v64c0 17.67 14.33 32 32 32s32-14.33 32-32v-64c0-17.67-14.33-32-32-32z"/>
</svg>